<svg fill="white" id="Capa_1" enable-background="new 0 0 511.997 511.997" height="512" viewBox="0 0 511.997 511.997" width="512" xmlns="http://www.w3.org/2000/svg"><g><path d="m440.124 121.619c-19.94-1.531-42.504-6.061-67.065-13.462-29.507-8.894-58.149-7.521-85.133 4.078-3.806 1.636-5.564 6.047-3.929 9.853 1.636 3.804 6.042 5.566 9.853 3.929 23.651-10.167 48.846-11.345 74.881-3.498 25.595 7.714 49.229 12.442 70.245 14.056.195.016.39.022.582.022 3.882 0 7.168-2.991 7.47-6.926.317-4.13-2.774-7.735-6.904-8.052z"/><path d="m440.123 153.494c-19.935-1.53-42.498-6.059-67.064-13.462-29.507-8.894-58.149-7.521-85.133 4.078-3.806 1.636-5.564 6.047-3.929 9.853 1.636 3.805 6.042 5.566 9.853 3.929 23.651-10.167 48.846-11.345 74.881-3.498 25.601 7.715 49.234 12.444 70.246 14.056.195.016.389.022.581.022 3.882 0 7.168-2.991 7.47-6.927.317-4.13-2.774-7.734-6.905-8.051z"/><path d="m440.124 312.871c-19.941-1.531-42.505-6.061-67.065-13.463-29.505-8.894-58.146-7.52-85.133 4.079-3.806 1.636-5.564 6.047-3.929 9.853 1.636 3.804 6.042 5.566 9.853 3.929 23.652-10.167 48.847-11.343 74.881-3.499 25.594 7.714 49.228 12.443 70.245 14.057.195.016.39.022.582.022 3.882 0 7.168-2.991 7.47-6.926.317-4.13-2.774-7.735-6.904-8.052z"/><path d="m440.124 344.746c-19.94-1.531-42.504-6.061-67.065-13.462-29.507-8.893-58.149-7.521-85.133 4.078-3.806 1.636-5.564 6.047-3.929 9.853 1.636 3.805 6.042 5.566 9.853 3.929 23.651-10.167 48.846-11.345 74.881-3.498 25.595 7.714 49.229 12.442 70.245 14.056.195.016.39.022.582.022 3.882 0 7.168-2.991 7.47-6.926.317-4.13-2.774-7.735-6.904-8.052z"/><path d="m440.124 185.37c-19.941-1.531-42.505-6.061-67.065-13.463-29.505-8.893-58.146-7.521-85.133 4.079-3.806 1.636-5.564 6.047-3.929 9.853 1.636 3.804 6.042 5.565 9.853 3.929 23.652-10.167 48.847-11.344 74.881-3.499 25.594 7.714 49.228 12.443 70.245 14.057.195.016.39.022.582.022 3.882 0 7.168-2.991 7.47-6.926.317-4.13-2.774-7.735-6.904-8.052z"/><path d="m440.123 249.119c-19.935-1.529-42.498-6.058-67.064-13.461-29.505-8.894-58.148-7.521-85.133 4.078-3.806 1.636-5.564 6.047-3.929 9.853 1.636 3.805 6.042 5.566 9.853 3.929 23.65-10.166 48.846-11.344 74.881-3.498 25.601 7.715 49.234 12.444 70.246 14.057.195.015.389.021.581.021 3.882 0 7.168-2.991 7.47-6.927.317-4.13-2.774-7.734-6.905-8.052z"/><path d="m440.124 217.245c-19.94-1.531-42.504-6.061-67.065-13.462-29.504-8.894-58.148-7.521-85.133 4.078-3.806 1.636-5.564 6.047-3.929 9.853 1.636 3.804 6.042 5.566 9.853 3.929 23.654-10.167 48.847-11.344 74.881-3.498 25.595 7.714 49.229 12.442 70.245 14.056.195.016.39.022.582.022 3.882 0 7.168-2.991 7.47-6.926.317-4.13-2.774-7.735-6.904-8.052z"/><path d="m440.123 280.994c-19.938-1.529-42.502-6.059-67.064-13.461-29.505-8.893-58.146-7.521-85.133 4.079-3.806 1.636-5.564 6.047-3.929 9.853 1.636 3.804 6.042 5.565 9.853 3.929 23.652-10.167 48.847-11.343 74.881-3.499 25.597 7.715 49.23 12.444 70.246 14.057.195.015.389.021.581.021 3.882 0 7.168-2.991 7.47-6.927.317-4.13-2.774-7.734-6.905-8.052z"/><path d="m72.44 136.597c.192 0 .387-.007.582-.022 21.017-1.613 44.65-6.342 70.245-14.056 26.035-7.846 51.229-6.67 74.881 3.498 3.805 1.636 8.217-.124 9.853-3.929 1.636-3.806-.123-8.217-3.929-9.853-26.984-11.6-55.627-12.971-85.133-4.078-24.562 7.401-47.125 11.931-67.065 13.462-4.13.316-7.221 3.922-6.903 8.052.301 3.935 3.588 6.926 7.469 6.926z"/><path d="m72.44 168.472c.192 0 .387-.007.581-.022 21.012-1.611 44.646-6.341 70.246-14.056 26.035-7.846 51.229-6.671 74.881 3.498 3.805 1.635 8.217-.124 9.853-3.929 1.636-3.806-.123-8.217-3.929-9.853-26.984-11.6-55.627-12.97-85.133-4.078-24.566 7.403-47.13 11.932-67.064 13.462-4.131.316-7.222 3.921-6.904 8.051.301 3.936 3.588 6.927 7.469 6.927z"/><path d="m72.44 327.849c.192 0 .387-.007.582-.022 21.018-1.613 44.651-6.343 70.245-14.057 26.036-7.848 51.229-6.668 74.881 3.499 3.805 1.635 8.217-.124 9.853-3.929 1.636-3.806-.123-8.217-3.929-9.853-26.984-11.6-55.627-12.971-85.133-4.079-24.561 7.402-47.124 11.932-67.065 13.463-4.13.316-7.221 3.922-6.903 8.052.301 3.935 3.588 6.926 7.469 6.926z"/><path d="m72.44 359.724c.192 0 .387-.007.582-.022 21.017-1.613 44.65-6.342 70.245-14.056 26.035-7.846 51.229-6.671 74.881 3.498 3.805 1.634 8.217-.124 9.853-3.929 1.636-3.806-.123-8.217-3.929-9.853-26.984-11.6-55.627-12.971-85.133-4.078-24.562 7.401-47.125 11.931-67.065 13.462-4.13.316-7.221 3.922-6.903 8.052.301 3.935 3.588 6.926 7.469 6.926z"/><path d="m72.44 200.348c.192 0 .387-.007.582-.022 21.018-1.613 44.651-6.343 70.245-14.057 26.036-7.847 51.229-6.668 74.881 3.499 3.805 1.635 8.217-.124 9.853-3.929 1.636-3.806-.123-8.217-3.929-9.853-26.984-11.6-55.627-12.971-85.133-4.079-24.561 7.402-47.124 11.932-67.065 13.463-4.13.316-7.221 3.922-6.903 8.052.301 3.935 3.588 6.926 7.469 6.926z"/><path d="m72.44 264.098c.192 0 .387-.007.581-.021 21.012-1.612 44.646-6.342 70.246-14.057 26.035-7.846 51.229-6.671 74.881 3.498 3.805 1.635 8.217-.124 9.853-3.929 1.636-3.806-.123-8.217-3.929-9.853-26.983-11.599-55.625-12.971-85.133-4.078-24.566 7.403-47.13 11.932-67.064 13.461-4.131.317-7.222 3.922-6.904 8.052.301 3.936 3.588 6.927 7.469 6.927z"/><path d="m72.44 232.223c.192 0 .387-.007.582-.022 21.017-1.613 44.65-6.342 70.245-14.056 26.034-7.845 51.228-6.671 74.881 3.498 3.805 1.634 8.217-.124 9.853-3.929 1.636-3.806-.123-8.217-3.929-9.853-26.986-11.6-55.627-12.973-85.133-4.078-24.562 7.401-47.125 11.931-67.065 13.462-4.13.316-7.221 3.922-6.903 8.052.301 3.935 3.588 6.926 7.469 6.926z"/><path d="m72.44 295.973c.192 0 .387-.007.581-.021 21.016-1.612 44.649-6.342 70.246-14.057 26.036-7.848 51.229-6.668 74.881 3.499 3.805 1.636 8.217-.124 9.853-3.929 1.636-3.806-.123-8.217-3.929-9.853-26.984-11.6-55.627-12.972-85.133-4.079-24.562 7.402-47.127 11.932-67.064 13.461-4.131.317-7.222 3.922-6.904 8.052.301 3.936 3.588 6.927 7.469 6.927z"/><path d="m493.68 93.315h-11.741v-6.843c0-9.59-8.181-17.176-17.762-16.413-11.067.885-35.3.939-73.262-8.687-4.017-1.021-8.097 1.412-9.113 5.426-1.019 4.016 1.411 8.096 5.426 9.113 38.054 9.649 63.502 10.276 78.148 9.099.853-.06 1.562.603 1.562 1.462v302.656c-28.41 3.065-66.362-5.068-93.88-13.36-61.461-18.523-101.194 13.3-109.56 17.834v-299.79c8.104-7.601 40.767-34.523 89.38-26.701 4.087.664 7.938-2.122 8.597-6.212.659-4.089-2.122-7.938-6.212-8.597-51.045-8.224-86.269 16.71-99.283 28.065-29.839-25.878-72.521-37.373-117.041-23.953-47.783 14.4-77.601 14.725-91.118 13.646-9.594-.77-17.761 6.84-17.761 16.412v6.843h-11.743c-10.1 0-18.317 8.216-18.317 18.317v304.143c0 10.101 8.218 18.317 18.318 18.317h194.326c2.912 0 5.553 1.607 6.729 4.097 14.556 30.796 58.641 30.909 73.25 0 1.177-2.488 3.818-4.097 6.73-4.097h194.326c10.1 0 18.316-8.217 18.316-18.317v-142.235c0-4.143-3.357-7.5-7.5-7.5s-7.5 3.357-7.5 7.5v142.234c0 1.829-1.487 3.317-3.316 3.317h-194.325c-8.684 0-16.648 4.979-20.291 12.687-9.168 19.395-36.926 19.472-46.128.001-3.642-7.707-11.606-12.688-20.291-12.688h-194.326c-1.83 0-3.318-1.488-3.318-3.317v-304.142c0-1.829 1.488-3.317 3.317-3.317h11.743v287.214c0 3.403 2.291 6.38 5.581 7.25 1.426.378 35.778 9.005 107.627-12.649 34.763-10.476 68.315-4.052 94.936 14.721 10.293 7.257 24.622 7.737 35.593-.001 16.077-11.338 49.785-28.324 94.935-14.72 71.852 21.653 106.201 13.026 107.627 12.649 3.29-.87 5.581-3.847 5.581-7.25v-287.214h11.741c1.829 0 3.317 1.488 3.317 3.317v126.908c0 4.143 3.357 7.5 7.5 7.5s7.5-3.357 7.5-7.5v-126.908c-.001-10.101-8.218-18.317-18.318-18.317zm-448.62-6.843c0-.841.687-1.523 1.562-1.462 14.57 1.172 46.505.876 96.646-14.235 40.607-12.234 79.401-1.143 105.231 23.043v299.784c-4.302-2.329-46.474-36.849-109.56-17.833-4.045 1.219-8.491 2.485-12.605 3.584-.05.013-.1.027-.149.04-24.15 6.442-56.276 12.415-81.126 9.739.001-20.846.001-297.07.001-302.66z"/></g></svg>